# xmcd
#
# Track frame offsets:
# 150
# 18201
# 39413
# 63157
# 83726
# 98737
# 119533
# 133170
# 145551
# 157662
# 171102
# 181539
#
# Disc length: 2583 seconds
#
# Revision: 0
# Processed by: cddbd v1.5PL3 Copyright (c) Steve Scherf et al.
# Submitted via: Audion 3.0.2 (http://www.panic.com/audion/)
#
DISCID=860a150c
DTITLE=Barrelhouse and Detroit Jr. - 8 Hands 88 Keys
DYEAR=1900
DGENRE=
TTITLE0=How Long Blues
TTITLE1=How Much More
TTITLE2=Grinder Man Blues
TTITLE3=Four O' Clock Blues
TTITLE4=Stop Time Boogie
TTITLE5=Ain't Nobody's Business
TTITLE6=Staggerlee
TTITLE7=Ella
TTITLE8=I'm So Unhappy
TTITLE9=Miss Ida B.
TTITLE10=Rooster's Blues
TTITLE11=It's You Baby
EXTD=
EXTT0=
EXTT1=
EXTT2=
EXTT3=
EXTT4=
EXTT5=
EXTT6=
EXTT7=
EXTT8=
EXTT9=
EXTT10=
EXTT11=
PLAYORDER=
